# xmcd
#
# Track frame offsets:
# 150
# 15243
# 27167
# 42635
# 56950
# 57739
# 72823
# 86917
# 102115
# 118342
# 132073
# 144424
# 145111
# 159151
# 170613
# 182504
# 196150
# 209770
# 226822
# 227490
# 240936
# 257499
# 271746
# 285879
# 300522
# 313625
#
# Disc length: 4189 seconds
#
# Revision: 0
# Processed by: cddbd v1.5.1PL0 Copyright (c) Steve Scherf et al.
# Submitted via: Audion 3.0.2 (http://www.panic.com/audion/)
#
DISCID=61105b1a
DTITLE=Assimil - Russe - 2
DYEAR=1900
DGENRE=
TTITLE0=24
TTITLE1=25
TTITLE2=26
TTITLE3=27
TTITLE4=28
TTITLE5=29
TTITLE6=30
TTITLE7=31
TTITLE8=32
TTITLE9=33
TTITLE10=34
TTITLE11=35
TTITLE12=36
TTITLE13=37
TTITLE14=38
TTITLE15=39
TTITLE16=40
TTITLE17=41
TTITLE18=42
TTITLE19=43
TTITLE20=44
TTITLE21=45
TTITLE22=46
TTITLE23=47
TTITLE24=48
TTITLE25=49
EXTD=
EXTT0=
EXTT1=
EXTT2=
EXTT3=
EXTT4=
EXTT5=
EXTT6=
EXTT7=
EXTT8=
EXTT9=
EXTT10=
EXTT11=
EXTT12=
EXTT13=
EXTT14=
EXTT15=
EXTT16=
EXTT17=
EXTT18=
EXTT19=
EXTT20=
EXTT21=
EXTT22=
EXTT23=
EXTT24=
EXTT25=
PLAYORDER=
